grf
version=1
nRows=41
nColumns=19
inDegrees=yes
endheader
time	ground_force_1_vx	ground_force_1_vy	ground_force_1_vz	ground_force_1_px	ground_force_1_py	ground_force_1_pz	ground_moment_1_mx	ground_moment_1_my	ground_moment_1_mz	ground_force_2_vx	ground_force_2_vy	ground_force_2_vz	ground_force_2_px	ground_force_2_py	ground_force_2_pz	ground_moment_2_mx	ground_moment_2_my	ground_moment_2_mz
10.706000	-1.171063	1337.352517	-114.837444	0.145136	0.000000	-1.078290	-0.000000	14.027081	0.000000	7.304940	1321.174647	144.057168	0.146388	0.000000	-1.386220	0.000000	-18.158359	-0.000000
10.707000	-1.199643	1335.316437	-114.594437	0.145293	0.000000	-1.078229	-0.000000	13.989826	0.000000	7.240547	1321.782294	144.079108	0.146416	0.000000	-1.386254	0.000000	-18.123420	-0.000000
10.708000	-1.238969	1333.283180	-114.338714	0.145448	0.000000	-1.078171	-0.000000	13.953790	0.000000	7.181801	1322.355585	144.101904	0.146443	0.000000	-1.386295	0.000000	-18.087923	-0.000000
10.709000	-1.288984	1331.260103	-114.071716	0.145600	0.000000	-1.078115	-0.000000	13.919033	0.000000	7.129230	1322.889444	144.125570	0.146470	0.000000	-1.386342	0.000000	-18.051887	-0.000000
10.710000	-1.349614	1329.254466	-113.794984	0.145749	0.000000	-1.078062	-0.000000	13.885601	0.000000	7.083351	1323.378872	144.150090	0.146497	0.000000	-1.386396	0.000000	-18.015328	-0.000000
10.711000	-1.420774	1327.273368	-113.510143	0.145895	0.000000	-1.078013	-0.000000	13.853526	0.000000	7.044650	1323.819013	144.175424	0.146524	0.000000	-1.386455	0.000000	-17.978260	-0.000000
10.712000	-1.502364	1325.323695	-113.218887	0.146038	0.000000	-1.077967	-0.000000	13.822825	0.000000	7.013571	1324.205206	144.201503	0.146552	0.000000	-1.386519	0.000000	-17.940698	-0.000000
10.713000	-1.594278	1323.412057	-112.922964	0.146180	0.000000	-1.077926	-0.000000	13.793502	0.000000	6.990500	1324.533054	144.228235	0.146582	0.000000	-1.386586	0.000000	-17.902649	-0.000000
10.714000	-1.696397	1321.544747	-112.624156	0.146320	0.000000	-1.077888	-0.000000	13.765549	0.000000	6.975748	1324.798487	144.255509	0.146613	0.000000	-1.386654	0.000000	-17.864119	-0.000000
10.715000	-1.808594	1319.727693	-112.324264	0.146458	0.000000	-1.077855	-0.000000	13.738944	0.000000	6.969544	1324.997827	144.283192	0.146646	0.000000	-1.386721	0.000000	-17.825108	-0.000000
10.716000	-1.930726	1317.966418	-112.025090	0.146597	0.000000	-1.077826	-0.000000	13.713653	0.000000	6.972017	1325.127854	144.311136	0.146682	0.000000	-1.386786	0.000000	-17.785613	-0.000000
10.717000	-2.062634	1316.266007	-111.728416	0.146737	0.000000	-1.077800	-0.000000	13.689635	0.000000	6.983190	1325.185867	144.339183	0.146721	0.000000	-1.386845	0.000000	-17.745624	-0.000000
10.718000	-2.204135	1314.631080	-111.435993	0.146878	0.000000	-1.077778	-0.000000	13.666836	0.000000	7.002970	1325.169742	144.367163	0.146764	0.000000	-1.386898	0.000000	-17.705124	-0.000000
10.719000	-2.355021	1313.065769	-111.149516	0.147021	0.000000	-1.077758	-0.000000	13.645198	0.000000	7.031145	1325.077980	144.394905	0.146811	0.000000	-1.386943	0.000000	-17.664095	-0.000000
10.720000	-2.515049	1311.573701	-110.870616	0.147167	0.000000	-1.077740	-0.000000	13.624655	0.000000	7.067375	1324.909754	144.422235	0.146863	0.000000	-1.386979	0.000000	-17.622510	-0.000000
10.721000	-2.683940	1310.157986	-110.600843	0.147317	0.000000	-1.077724	-0.000000	13.605138	0.000000	7.111197	1324.664934	144.448983	0.146920	0.000000	-1.387006	0.000000	-17.580340	-0.000000
10.722000	-2.861371	1308.821208	-110.341651	0.147471	0.000000	-1.077709	-0.000000	13.586573	0.000000	7.162024	1324.344115	144.474991	0.146982	0.000000	-1.387025	0.000000	-17.537549	-0.000000
10.723000	-3.046968	1307.565427	-110.094388	0.147628	0.000000	-1.077693	-0.000000	13.568886	0.000000	7.219148	1323.948621	144.500111	0.147051	0.000000	-1.387036	0.000000	-17.494100	-0.000000
10.724000	-3.240308	1306.392173	-109.860287	0.147790	0.000000	-1.077677	-0.000000	13.552002	0.000000	7.281743	1323.480505	144.524217	0.147126	0.000000	-1.387039	0.000000	-17.449953	-0.000000
10.725000	-3.440905	1305.302452	-109.640455	0.147954	0.000000	-1.077658	-0.000000	13.535846	0.000000	7.348879	1322.942528	144.547206	0.147208	0.000000	-1.387037	0.000000	-17.405065	-0.000000
10.726000	-3.648216	1304.296755	-109.435869	0.148122	0.000000	-1.077638	-0.000000	13.520345	0.000000	7.419523	1322.338139	144.569006	0.147297	0.000000	-1.387031	0.000000	-17.359393	-0.000000
10.727000	-3.861631	1303.375064	-109.247370	0.148292	0.000000	-1.077615	-0.000000	13.505428	0.000000	7.492554	1321.671427	144.589581	0.147393	0.000000	-1.387023	0.000000	-17.312894	-0.000000
10.728000	-4.080479	1302.536867	-109.075661	0.148462	0.000000	-1.077589	-0.000000	13.491026	0.000000	7.566772	1320.947080	144.608936	0.147497	0.000000	-1.387014	-0.000000	-17.265527	-0.000000
10.729000	-4.304018	1301.781171	-108.921302	0.148634	0.000000	-1.077560	-0.000000	13.477074	0.000000	7.640908	1320.170324	144.627122	0.147608	0.000000	-1.387007	-0.000000	-17.217253	-0.000000
10.730000	-4.531443	1301.106522	-108.784713	0.148804	0.000000	-1.077528	-0.000000	13.463511	0.000000	7.713640	1319.346863	144.644244	0.147726	0.000000	-1.387002	-0.000000	-17.168036	-0.000000
10.731000	-4.761887	1300.511025	-108.666176	0.148973	0.000000	-1.077495	-0.000000	13.450279	0.000000	7.783601	1318.482803	144.660459	0.147852	0.000000	-1.387002	0.000000	-17.117846	-0.000000
10.732000	-4.994418	1299.992368	-108.565833	0.149140	0.000000	-1.077462	-0.000000	13.437321	0.000000	7.849395	1317.584587	144.675984	0.147985	0.000000	-1.387007	0.000000	-17.066658	-0.000000
10.733000	-5.228051	1299.547851	-108.483696	0.149302	0.000000	-1.077428	-0.000000	13.424588	0.000000	7.909604	1316.658915	144.691097	0.148125	0.000000	-1.387018	0.000000	-17.014453	-0.000000
10.734000	-5.461747	1299.174410	-108.419646	0.149461	0.000000	-1.077395	-0.000000	13.412031	0.000000	7.962807	1315.712665	144.706136	0.148273	0.000000	-1.387036	0.000000	-16.961218	-0.000000
10.735000	-5.694425	1298.868660	-108.373446	0.149614	0.000000	-1.077365	-0.000000	13.399604	0.000000	8.007587	1314.752821	144.721501	0.148427	0.000000	-1.387061	0.000000	-16.906952	-0.000000
10.736000	-5.924963	1298.626918	-108.344745	0.149762	0.000000	-1.077338	-0.000000	13.387266	0.000000	8.042543	1313.786390	144.737651	0.148587	0.000000	-1.387092	0.000000	-16.851656	-0.000000
10.737000	-6.152211	1298.445249	-108.333083	0.149905	0.000000	-1.077314	-0.000000	13.374975	0.000000	8.066304	1312.820325	144.755097	0.148754	0.000000	-1.387130	0.000000	-16.795344	-0.000000
10.738000	-6.375000	1298.319496	-108.337908	0.150042	0.000000	-1.077294	-0.000000	13.362692	0.000000	8.077536	1311.861453	144.774403	0.148927	0.000000	-1.387175	0.000000	-16.738035	-0.000000
10.739000	-6.592148	1298.245325	-108.358579	0.150173	0.000000	-1.077279	-0.000000	13.350382	0.000000	8.074953	1310.916397	144.796174	0.149106	0.000000	-1.387226	0.000000	-16.679758	-0.000000
10.740000	-6.802475	1298.218259	-108.394378	0.150299	0.000000	-1.077267	-0.000000	13.338007	0.000000	8.057330	1309.991502	144.821048	0.149291	0.000000	-1.387282	0.000000	-16.620547	-0.000000
10.741000	-7.004810	1298.233719	-108.444519	0.150420	0.000000	-1.077259	-0.000000	13.325533	0.000000	8.023506	1309.092767	144.849691	0.149482	0.000000	-1.387345	0.000000	-16.560444	-0.000000
10.742000	-7.198006	1298.287062	-108.508159	0.150537	0.000000	-1.077253	-0.000000	13.312924	0.000000	7.972401	1308.225775	144.882781	0.149678	0.000000	-1.387413	-0.000000	-16.499497	-0.000000
10.743000	-7.380945	1298.373614	-108.584407	0.150650	0.000000	-1.077249	-0.000000	13.300145	0.000000	7.903017	1307.395631	144.921001	0.149879	0.000000	-1.387486	-0.000000	-16.437757	-0.000000
10.744000	-7.552557	1298.488710	-108.672332	0.150761	0.000000	-1.077246	-0.000000	13.287163	0.000000	7.814450	1306.606901	144.965024	0.150085	0.000000	-1.387565	-0.000000	-16.375280	-0.000000
10.745000	-7.711828	1298.627726	-108.770973	0.150869	0.000000	-1.077243	-0.000000	13.273941	0.000000	7.705896	1305.863557	145.015504	0.150297	0.000000	-1.387649	-0.000000	-16.312124	-0.000000
10.746000	-7.857809	1298.786107	-108.879345	0.150976	0.000000	-1.077239	-0.000000	13.260444	0.000000	7.576657	1305.168928	145.073063	0.150513	0.000000	-1.387737	-0.000000	-16.248348	-0.000000
